<svg width="8" height="15" viewBox="0 0 8 15" fill="none" xmlns="http://www.w3.org/2000/svg">
<path id="Vector" d="M6.66667 0.833984H1.33333C0.979711 0.833984 0.640573 0.97446 0.390524 1.22451C0.140476 1.47456 0 1.8137 0 2.16732V12.834C0 13.1876 0.140476 13.5267 0.390524 13.7768C0.640573 14.0268 0.979711 14.1673 1.33333 14.1673H6.66667C7.02029 14.1673 7.35943 14.0268 7.60948 13.7768C7.85952 13.5267 8 13.1876 8 12.834V2.16732C8 1.8137 7.85952 1.47456 7.60948 1.22451C7.35943 0.97446 7.02029 0.833984 6.66667 0.833984ZM4.66667 13.5007H3.33333V12.834H4.66667V13.5007ZM6.66667 12.1673H1.33333V2.83398H6.66667V12.1673Z" fill="url(#paint0_linear_27_10)"/>
<defs>
<linearGradient id="paint0_linear_27_10" x1="4" y1="0.833984" x2="4" y2="14.1673" gradientUnits="userSpaceOnUse">
<stop stop-color="#FF9A1A"/>
<stop offset="1" stop-color="#EC1C09"/>
</linearGradient>
</defs>
</svg>
